name rise44.9368peak50.754fall52.0217.mot
datacolumns 19
datarows 27
range 3.31666000000000 3.35999500000000
endheader
time	ground_force1_vx	ground_force1_vy	ground_force1_vz	ground_force1_px	ground_force1_py	ground_force1_pz	ground_force2_vx	ground_force2_vy	ground_force2_vz	ground_force2_px	ground_force2_py	ground_force2_pz	ground_torque1_x	ground_torque1_y	ground_torque1_z	ground_torque2_x	ground_torque2_y	ground_torque2_z	
3.31666000000000	61.50685100000000	720.30721200000005	57.45025700000000	0.39205500000000	0.00000000000000	0.10412300000000	-0.74281800000000	7.10133800000000	0.15028800000000	0.00000000000000	0.00000000000000	0.00000000000000	0.00000000000000	31.62330800000000	0.00000000000000	0.00000000000000	-0.02023600000000	0.00000000000000	
3.31832800000000	60.85734000000000	722.95581500000003	57.70794700000000	0.39065300000000	0.00000000000000	0.10421200000000	-0.26885500000000	3.60145100000000	0.10040700000000	0.00000000000000	0.00000000000000	0.00000000000000	0.00000000000000	31.78809700000000	0.00000000000000	0.00000000000000	0.01301000000000	0.00000000000000	
3.31999600000000	60.21040900000000	725.55373099999997	57.96838300000000	0.38926600000000	0.00000000000000	0.10430100000000	0.00000000000000	0.00000000000000	0.00000000000000	0.00000000000000	0.00000000000000	0.00000000000000	0.00000000000000	31.95551700000000	0.00000000000000	0.00000000000000	0.00000000000000	0.00000000000000	
3.32165700000000	59.56685700000000	728.09973900000000	58.23101600000000	0.38789600000000	0.00000000000000	0.10439000000000	0.00000000000000	0.00000000000000	0.00000000000000	0.00000000000000	0.00000000000000	0.00000000000000	0.00000000000000	32.12513900000000	0.00000000000000	0.00000000000000	0.00000000000000	0.00000000000000	
3.32332200000000	58.92741600000000	730.59252100000003	58.49523800000000	0.38654400000000	0.00000000000000	0.10447800000000	0.00000000000000	0.00000000000000	0.00000000000000	0.00000000000000	0.00000000000000	0.00000000000000	0.00000000000000	32.29649600000000	0.00000000000000	0.00000000000000	0.00000000000000	0.00000000000000	
3.32498800000000	58.29275200000000	733.03066899999999	58.76038000000000	0.38521100000000	0.00000000000000	0.10456700000000	0.00000000000000	0.00000000000000	0.00000000000000	0.00000000000000	0.00000000000000	0.00000000000000	0.00000000000000	32.46908600000000	0.00000000000000	0.00000000000000	0.00000000000000	0.00000000000000	
3.32666000000000	57.66345800000000	735.41270099999997	59.02572300000000	0.38389700000000	0.00000000000000	0.10465500000000	0.00000000000000	0.00000000000000	0.00000000000000	0.00000000000000	0.00000000000000	0.00000000000000	0.00000000000000	32.64236900000000	0.00000000000000	0.00000000000000	0.00000000000000	0.00000000000000	
3.32832300000000	57.04006500000000	737.73706800000002	59.29050200000000	0.38260500000000	0.00000000000000	0.10474200000000	0.00000000000000	0.00000000000000	0.00000000000000	0.00000000000000	0.00000000000000	0.00000000000000	0.00000000000000	32.81578200000000	0.00000000000000	0.00000000000000	0.00000000000000	0.00000000000000	
3.32999200000000	56.42303700000000	740.00216599999999	59.55391000000000	0.38133300000000	0.00000000000000	0.10482800000000	0.00000000000000	0.00000000000000	0.00000000000000	0.00000000000000	0.00000000000000	0.00000000000000	0.00000000000000	32.98873400000000	0.00000000000000	0.00000000000000	0.00000000000000	0.00000000000000	
3.33166000000000	55.81277500000000	742.20634800000005	59.81510800000000	0.38008400000000	0.00000000000000	0.10491300000000	0.00000000000000	0.00000000000000	0.00000000000000	0.00000000000000	0.00000000000000	0.00000000000000	0.00000000000000	33.16061600000000	0.00000000000000	0.00000000000000	0.00000000000000	0.00000000000000	
3.33332900000000	55.20961700000000	744.34793400000001	60.07323100000000	0.37885700000000	0.00000000000000	0.10499600000000	0.00000000000000	0.00000000000000	0.00000000000000	0.00000000000000	0.00000000000000	0.00000000000000	0.00000000000000	33.33080300000000	0.00000000000000	0.00000000000000	0.00000000000000	0.00000000000000	
3.33499300000000	54.61384200000000	746.42522199999996	60.32739100000000	0.37765300000000	0.00000000000000	0.10507800000000	0.00000000000000	0.00000000000000	0.00000000000000	0.00000000000000	0.00000000000000	0.00000000000000	0.00000000000000	33.49866000000000	0.00000000000000	0.00000000000000	0.00000000000000	0.00000000000000	
3.33665700000000	54.02567200000000	748.43650400000001	60.57668600000000	0.37647300000000	0.00000000000000	0.10515800000000	0.00000000000000	0.00000000000000	0.00000000000000	0.00000000000000	0.00000000000000	0.00000000000000	0.00000000000000	33.66354400000000	0.00000000000000	0.00000000000000	0.00000000000000	0.00000000000000	
3.33833700000000	53.44527000000000	750.38007100000004	60.82020800000000	0.37531600000000	0.00000000000000	0.10523600000000	0.00000000000000	0.00000000000000	0.00000000000000	0.00000000000000	0.00000000000000	0.00000000000000	0.00000000000000	33.82480800000000	0.00000000000000	0.00000000000000	0.00000000000000	0.00000000000000	
3.33998800000000	52.87275100000000	752.25423100000000	61.05704600000000	0.37418300000000	0.00000000000000	0.10531200000000	0.00000000000000	0.00000000000000	0.00000000000000	0.00000000000000	0.00000000000000	0.00000000000000	0.00000000000000	33.98181000000000	0.00000000000000	0.00000000000000	0.00000000000000	0.00000000000000	
3.34165900000000	52.30817400000000	754.05731400000002	61.28629400000000	0.37307400000000	0.00000000000000	0.10538500000000	0.00000000000000	0.00000000000000	0.00000000000000	0.00000000000000	0.00000000000000	0.00000000000000	0.00000000000000	34.13391000000000	0.00000000000000	0.00000000000000	0.00000000000000	0.00000000000000	
3.34333100000000	51.75155500000000	755.78769100000000	61.50705700000000	0.37198900000000	0.00000000000000	0.10545600000000	0.00000000000000	0.00000000000000	0.00000000000000	0.00000000000000	0.00000000000000	0.00000000000000	0.00000000000000	34.28047800000000	0.00000000000000	0.00000000000000	0.00000000000000	0.00000000000000	
3.34499100000000	51.20286200000000	757.44377699999995	61.71845800000000	0.37092800000000	0.00000000000000	0.10552400000000	0.00000000000000	0.00000000000000	0.00000000000000	0.00000000000000	0.00000000000000	0.00000000000000	0.00000000000000	34.42089800000000	0.00000000000000	0.00000000000000	0.00000000000000	0.00000000000000	
3.34665800000000	50.66202100000000	759.02404700000000	61.91963900000000	0.36989100000000	0.00000000000000	0.10558900000000	0.00000000000000	0.00000000000000	0.00000000000000	0.00000000000000	0.00000000000000	0.00000000000000	0.00000000000000	34.55456800000000	0.00000000000000	0.00000000000000	0.00000000000000	0.00000000000000	
3.34832700000000	50.12892100000000	760.52704400000005	62.10977300000000	0.36887700000000	0.00000000000000	0.10565100000000	0.00000000000000	0.00000000000000	0.00000000000000	0.00000000000000	0.00000000000000	0.00000000000000	0.00000000000000	34.68090900000000	0.00000000000000	0.00000000000000	0.00000000000000	0.00000000000000	
3.35000000000000	49.60341300000000	761.95139099999994	62.28806600000000	0.36788700000000	0.00000000000000	0.10571000000000	0.00000000000000	0.00000000000000	0.00000000000000	0.00000000000000	0.00000000000000	0.00000000000000	0.00000000000000	34.79936000000000	0.00000000000000	0.00000000000000	0.00000000000000	0.00000000000000	
3.35165500000000	49.08531500000000	763.29579799999999	62.45375900000000	0.36691900000000	0.00000000000000	0.10576600000000	0.00000000000000	0.00000000000000	0.00000000000000	0.00000000000000	0.00000000000000	0.00000000000000	0.00000000000000	34.90939100000000	0.00000000000000	0.00000000000000	0.00000000000000	0.00000000000000	
3.35332300000000	48.57441500000000	764.55907300000001	62.60613800000000	0.36597400000000	0.00000000000000	0.10581900000000	0.00000000000000	0.00000000000000	0.00000000000000	0.00000000000000	0.00000000000000	0.00000000000000	0.00000000000000	35.01049600000000	0.00000000000000	0.00000000000000	0.00000000000000	0.00000000000000	
3.35499000000000	48.07047600000000	765.74012800000003	62.74453300000000	0.36505000000000	0.00000000000000	0.10586800000000	0.00000000000000	0.00000000000000	0.00000000000000	0.00000000000000	0.00000000000000	0.00000000000000	0.00000000000000	35.10220100000000	0.00000000000000	0.00000000000000	0.00000000000000	0.00000000000000	
3.35665900000000	47.57323200000000	766.83799299999998	62.86832500000000	0.36414800000000	0.00000000000000	0.10591300000000	0.00000000000000	0.00000000000000	0.00000000000000	0.00000000000000	0.00000000000000	0.00000000000000	0.00000000000000	35.18406700000000	0.00000000000000	0.00000000000000	0.00000000000000	0.00000000000000	
3.35832100000000	47.08240300000000	767.85181499999999	62.97694900000000	0.36326500000000	0.00000000000000	0.10595600000000	0.00000000000000	0.00000000000000	0.00000000000000	0.00000000000000	0.00000000000000	0.00000000000000	0.00000000000000	35.25568900000000	0.00000000000000	0.00000000000000	0.00000000000000	0.00000000000000	
3.35999500000000	46.59768400000000	768.78087200000004	63.06989300000000	0.36240300000000	0.00000000000000	0.10599400000000	0.00000000000000	0.00000000000000	0.00000000000000	0.00000000000000	0.00000000000000	0.00000000000000	0.00000000000000	35.31669600000000	0.00000000000000	0.00000000000000	0.00000000000000	0.00000000000000	
